# xmcd
#
# Track frame offsets:
#	150
#	14114
#	32266
#	48381
#
# Disc length: 850 seconds
# Revision: 0
# Processed by: cddbd v1.5.2PL0 Copyright (c) Steve Scherf et al.
# Submitted via: dBpowerAMP V12.0
#
DISCID=29035004
DTITLE=Lloyd Back - Lloyd Back
DYEAR=2007
DGENRE=Country
TTITLE0=When I'm Not With My Baby
TTITLE1=Fourteen Years
TTITLE2=Narelle's Song
TTITLE3=Ball of String
EXTD=
EXTT0=
EXTT1=
EXTT2=
EXTT3=
PLAYORDER=
